<svg width="45" height="50" viewBox="0 0 45 50" fill="none" xmlns="http://www.w3.org/2000/svg">
<path d="M19.02 25.2232L3.64337 35.8492L19.02 46.4997L20.6359 50.0006L16.8397 49.9931L0 38.0752V33.5745L17.0118 21.6486L19.02 25.2232Z" fill="#9D4EDD"/>
<path d="M45.0001 12.3983V16.9233L28.1676 28.8412L25.9802 25.3723L41.364 14.6974L25.9802 4.07133L24.1419 0L27.9883 0.496737L45.0001 12.3983Z" fill="#9D4EDD"/>
<path d="M14.5792 40.204C19.101 29.6383 23.6227 19.0725 28.1444 8.50684C28.95 8.94554 29.7555 9.38417 30.5611 9.82294L17.0216 41.4439L14.5792 40.204Z" fill="#3C096C"/>
<path fill-rule="evenodd" clip-rule="evenodd" d="M3.71268 35.8013L0.259949 33.3922L17.0118 21.6486L19.0199 25.2232L3.71268 35.8013Z" fill="#7B2CBF"/>
<path fill-rule="evenodd" clip-rule="evenodd" d="M44.8227 12.2742L41.3056 14.657L25.9802 4.07133L24.1419 0L27.9883 0.496665L44.8227 12.2742Z" fill="#7B2CBF"/>
</svg>
