<svg width="1448" height="1080" viewBox="0 0 1448 1080" fill="none" xmlns="http://www.w3.org/2000/svg">
<path d="M2039.11 573.446L843.273 -758.249L0.921328 -1.8339C0.921328 -1.8339 66.9998 -20.359 49.9999 52.8205C33 126 174.96 102.5 152.98 167.5C131 232.5 186.654 269.5 261.635 288.5C336.617 307.5 352.733 309.5 336.617 372C320.5 434.5 373 509.5 435.844 482.5C498.687 455.5 558.5 513.5 538.662 597C518.824 680.5 687.5 634.5 663.93 736.5C640.361 838.5 663.93 857.5 772.586 857.5C880.233 857.5 882.13 892.835 886.942 982.467L887.078 985C892 1076.5 990 985 985.856 1095C981.712 1205 998 1166 1060.84 1178.5C1123.67 1191 1130.09 1203.86 1128.8 1254.18C1127.5 1304.5 1196.76 1329.86 1196.76 1329.86L2039.11 573.446Z" fill="#151515"/>
</svg>
