<svg width="1500" height="1556" viewBox="0 0 1500 1556" fill="none" xmlns="http://www.w3.org/2000/svg">
<path d="M1491.5 786.668C1445.5 850.5 1546.5 946.028 1463.56 987.668C1421.07 1009 1402.5 1046.5 1421.07 1100.67C1435.03 1141.37 1393.19 1251.61 1349.03 1220.67C1295.5 1183.17 1261.38 1299.16 1214.5 1290.39C1146.5 1277.67 1113.22 1362.56 1095 1437.43C1074.5 1521.67 1005 1464.17 961.502 1509.81C914.001 1559.65 831.001 1443.17 759.502 1518.67C704.158 1577.11 621.358 1562.67 581.002 1493.18C532.501 1409.67 531.001 1411.75 424.002 1437.43C348.001 1455.67 322.449 1414.17 285.002 1360.62C227.001 1277.67 287.5 1239.67 169.978 1220.67C113.001 1220.67 103 1224.17 84.8106 1141.67C61.5002 1050.67 14.0002 1128.67 55.4433 987.668C65.0002 933.168 39.2344 939.131 22 921.168C-30.4997 895.668 29.0012 829.668 37.0019 809.669C66.3334 736.346 112.002 761.669 65.1403 661.669C40.0019 536.169 93.5019 648.169 79.9047 514.169C97.9831 469.124 153.518 487.669 153.518 412.169C167.002 372.669 104.002 367.169 207.271 306.169C296.002 227.669 218.84 190.772 253.502 160.515C288.502 129.963 410.371 195 424.002 108.669C440.502 4.16862 511.5 93 560.502 41.5C624.52 -25.7819 689.369 -2.47607 759.502 54.6686C836 117 891.5 120.54 956.002 72.9572C1000 40.5 1067.38 34.0557 1078 127.406C1089.5 228.5 1162 149 1184 245.296C1199.36 312.5 1311.73 203 1311.73 306.169C1311.73 351.427 1380.5 350.696 1422.32 382.169C1496.5 438 1477.07 482.673 1439.1 514.169C1373 569 1449 593 1439.1 660.499C1427.73 738 1527.85 736.233 1491.5 786.668Z" fill="#151515"/>
</svg>
